<svg width="1726" height="371" viewBox="0 0 1726 371" fill="none" xmlns="http://www.w3.org/2000/svg">
<path d="M1681.36 154.032C1675.24 154.032 1669.31 156.517 1663.58 161.489C1658.03 166.27 1652.87 172.867 1648.09 181.281C1643.5 189.503 1639.39 198.778 1635.75 209.104C1632.31 219.43 1629.63 230.138 1627.72 241.229C1625.81 252.32 1624.85 262.933 1624.85 273.067C1624.85 281.672 1626.19 287.983 1628.87 291.998C1631.74 296.014 1635.85 298.022 1641.2 298.022C1647.32 298.022 1653.15 295.632 1658.7 290.851C1664.44 285.879 1669.69 279.282 1674.47 271.06C1679.26 262.646 1683.37 253.276 1686.81 242.95C1690.25 232.624 1692.93 222.011 1694.84 211.111C1696.75 200.021 1697.71 189.312 1697.71 178.986C1697.71 170.19 1696.37 163.88 1693.69 160.055C1691.02 156.039 1686.9 154.032 1681.36 154.032ZM1600.19 258.726C1600.19 250.312 1601.33 241.133 1603.63 231.19C1605.92 221.246 1609.36 211.398 1613.95 201.646C1618.54 191.894 1624.09 183.002 1630.59 174.97C1637.28 166.939 1645.03 160.533 1653.82 155.753C1662.62 150.781 1672.37 148.295 1683.08 148.295C1694.94 148.295 1704.4 152.024 1711.48 159.481C1718.74 166.748 1722.38 178.03 1722.38 193.328C1722.38 201.742 1721.23 210.92 1718.93 220.864C1716.64 230.807 1713.2 240.655 1708.61 250.408C1704.02 260.16 1698.38 269.052 1691.68 277.083C1685.18 285.114 1677.53 291.616 1668.74 296.588C1659.94 301.368 1650.19 303.759 1639.48 303.759C1627.63 303.759 1618.06 300.03 1610.8 292.572C1603.72 285.114 1600.19 273.832 1600.19 258.726Z" fill="#FFF9F4"/>
<path d="M1561.82 100.104C1562.77 95.1326 1565.26 90.8301 1569.28 87.1969C1573.48 83.5637 1577.98 81.7471 1582.76 81.7471C1587.73 81.7471 1591.55 83.5637 1594.23 87.1969C1597.1 90.8301 1598.06 95.1326 1597.1 100.104C1596.14 105.076 1593.56 109.379 1589.35 113.012C1585.34 116.645 1580.85 118.462 1575.87 118.462C1571.09 118.462 1567.27 116.645 1564.4 113.012C1561.72 109.379 1560.86 105.076 1561.82 100.104ZM1552.93 176.689C1556.94 164.833 1555.6 158.905 1548.91 158.905C1544.51 158.905 1540.59 161.296 1537.15 166.076C1533.71 170.857 1530.08 178.219 1526.25 188.162L1522.24 198.775H1516.79L1524.24 177.836C1527.11 169.805 1530.55 163.686 1534.57 159.479C1538.58 155.272 1542.79 152.404 1547.19 150.874C1551.78 149.153 1555.99 148.292 1559.81 148.292C1565.93 148.292 1570.42 149.535 1573.29 152.021C1576.16 154.507 1577.88 157.758 1578.45 161.774C1579.03 165.789 1578.84 170.187 1577.88 174.968C1576.93 179.557 1575.68 184.051 1574.15 188.449L1543.46 275.36C1541.55 280.905 1540.88 285.303 1541.45 288.554C1542.22 291.613 1544.42 293.143 1548.05 293.143C1551.87 293.143 1555.51 291.04 1558.95 286.833C1562.39 282.626 1566.22 274.977 1570.42 263.886L1574.44 253.273H1579.89L1572.43 274.212C1569.75 281.67 1566.5 287.598 1562.68 291.996C1558.85 296.203 1554.74 299.167 1550.35 300.888C1545.95 302.8 1541.55 303.756 1537.15 303.756C1528.93 303.756 1523.38 301.844 1520.51 298.019C1517.65 294.195 1516.59 289.223 1517.36 283.104C1518.12 276.985 1519.75 270.483 1522.24 263.599L1552.93 176.689Z" fill="#FFF9F4"/>
<path d="M1457.99 275.361C1456.65 279.759 1456.08 283.87 1456.27 287.695C1456.65 291.328 1458.94 293.144 1463.15 293.144C1466.97 293.144 1470.51 291.041 1473.76 286.834C1477.01 282.436 1480.46 274.787 1484.09 263.887L1487.53 253.274H1492.98L1486.38 274.213C1484.09 281.862 1481.03 287.886 1477.21 292.284C1473.38 296.491 1469.37 299.455 1465.16 301.176C1460.95 302.897 1456.94 303.757 1453.11 303.757C1441.64 303.757 1435.61 298.307 1435.04 287.408C1434.85 284.348 1435.04 280.81 1435.61 276.795C1436.38 272.779 1437.43 268.381 1438.77 263.6L1480.07 108.424C1481.79 101.922 1481.51 97.1415 1479.21 94.082C1476.92 91.0224 1471.09 89.4926 1461.72 89.4926L1463.44 83.4692C1473.95 83.2779 1483.23 82.2262 1491.26 80.314C1499.29 78.2105 1506.94 75.3422 1514.21 71.709L1457.99 275.361ZM1393.74 294.579C1398.52 294.579 1403.87 291.806 1409.8 286.26C1415.92 280.524 1422.04 272.875 1428.16 263.314C1434.47 253.561 1440.2 242.566 1445.37 230.328C1450.72 217.898 1454.93 205.086 1457.99 191.892L1453.68 222.87C1446.23 242.566 1438.77 258.342 1431.31 270.198C1424.05 282.053 1416.59 290.658 1408.94 296.013C1401.48 301.176 1393.64 303.757 1385.42 303.757C1379.49 303.757 1374.23 302.419 1369.64 299.741C1365.24 296.873 1361.8 292.666 1359.32 287.121C1356.83 281.575 1355.59 274.5 1355.59 265.895C1355.59 256.716 1357.02 246.869 1359.89 236.351C1362.95 225.643 1367.25 215.126 1372.8 204.8C1378.34 194.474 1384.94 185.104 1392.59 176.69C1400.43 168.085 1409.03 161.201 1418.4 156.038C1427.77 150.875 1437.72 148.293 1448.24 148.293C1452.63 148.293 1456.74 150.014 1460.57 153.456C1464.39 156.707 1466.5 161.679 1466.88 168.372L1464.58 174.108C1463.82 167.224 1461.91 162.348 1458.85 159.48C1455.79 156.42 1452.35 154.891 1448.52 154.891C1441.26 154.891 1434.18 157.377 1427.3 162.348C1420.6 167.32 1414.48 173.917 1408.94 182.14C1403.39 190.362 1398.52 199.541 1394.31 209.676C1390.1 219.619 1386.85 229.85 1384.56 240.367C1382.26 250.693 1381.12 260.445 1381.12 269.624C1381.12 278.038 1382.17 284.348 1384.27 288.555C1386.37 292.571 1389.53 294.579 1393.74 294.579Z" fill="#FFF9F4"/>
<path d="M1303.27 200.499C1296.39 219.621 1289.79 235.779 1283.48 248.973C1277.17 262.168 1270.86 272.781 1264.55 280.812C1258.43 288.843 1252.12 294.676 1245.62 298.309C1239.31 301.942 1232.71 303.759 1225.83 303.759C1217.42 303.759 1211.3 301.846 1207.47 298.022C1203.65 294.198 1201.74 289.034 1201.74 282.533C1201.74 276.031 1203.07 268.669 1205.75 260.447L1233.57 176.691C1235.49 170.955 1236.16 166.557 1235.58 163.497C1235.01 160.438 1232.81 158.908 1228.99 158.908C1225.35 158.908 1221.72 160.916 1218.09 164.931C1214.64 168.947 1210.91 176.691 1206.9 188.165L1203.17 198.778H1197.72L1204.89 177.839C1207.76 169.807 1211.11 163.688 1214.93 159.481C1218.95 155.275 1223.06 152.406 1227.26 150.876C1231.66 149.155 1235.77 148.295 1239.6 148.295C1248.01 148.295 1253.56 150.303 1256.23 154.318C1259.1 158.143 1260.15 163.115 1259.39 169.234C1258.82 175.353 1257.38 181.759 1255.09 188.452L1227.84 270.486C1222.48 286.549 1224.59 294.58 1234.15 294.58C1238.74 294.58 1243.61 292.572 1248.78 288.556C1253.94 284.35 1259.2 278.422 1264.55 270.773C1269.91 262.933 1275.17 253.658 1280.33 242.95C1285.68 232.05 1290.75 220.003 1295.53 206.809C1300.5 193.423 1305 179.082 1309.01 163.784L1303.27 200.499ZM1302.41 275.362C1301.08 280.525 1300.41 284.828 1300.41 288.27C1300.6 291.52 1302.61 293.146 1306.43 293.146C1310.64 293.146 1314.46 290.947 1317.9 286.549C1321.54 281.959 1325.17 274.406 1328.8 263.889L1332.53 253.276H1337.98L1330.81 274.215C1328.13 282.246 1324.79 288.365 1320.77 292.572C1316.95 296.779 1312.84 299.647 1308.44 301.177C1304.23 302.898 1300.12 303.759 1296.1 303.759C1293.04 303.759 1290.18 303.089 1287.5 301.751C1284.82 300.412 1282.81 298.5 1281.48 296.014C1279.95 292.763 1279.37 288.652 1279.75 283.68C1280.33 278.708 1281.67 272.016 1283.77 263.602L1311.88 152.311C1316.66 152.119 1321.25 151.737 1325.65 151.163C1330.24 150.59 1334.35 149.633 1337.98 148.295L1302.41 275.362Z" fill="#FFF9F4"/>
<path d="M1200.61 152.306L1199.75 158.042H1110.54L1111.97 152.306H1200.61ZM1127.75 275.357C1126.03 281.668 1126.41 286.257 1128.9 289.125C1131.57 291.802 1135.02 293.141 1139.22 293.141C1143.43 293.141 1147.64 291.324 1151.84 287.691C1156.24 284.058 1160.54 276.313 1164.75 264.458L1168.77 253.271H1174.22L1168.19 271.342C1163.99 283.771 1158.54 292.28 1151.84 296.87C1145.34 301.459 1137.69 303.754 1128.9 303.754C1121.06 303.754 1115.03 302.128 1110.83 298.878C1106.81 295.436 1104.42 290.655 1103.66 284.536C1102.89 278.417 1103.66 271.437 1105.95 263.597L1150.41 108.707C1155 108.516 1159.49 108.133 1163.89 107.56C1168.48 106.986 1172.59 106.03 1176.22 104.691L1127.75 275.357Z" fill="#FFF9F4"/>
<path d="M1099.44 94.6563C1097.52 99.6281 1094.94 106.894 1091.69 116.456C1088.63 125.825 1085.57 138.064 1082.51 153.17H1076.78C1077.35 150.493 1077.73 147.72 1077.92 144.852C1078.31 141.984 1078.5 139.307 1078.5 136.821C1078.5 129.746 1077.06 123.34 1074.2 117.603C1071.52 111.675 1067.22 106.99 1061.29 103.548C1055.36 99.9149 1047.52 98.0983 1037.77 98.0983C1026.29 98.0983 1016.73 101.062 1009.08 106.99C1001.44 112.918 997.611 122.097 997.611 134.526C997.611 141.793 999.332 148.581 1002.77 154.891C1006.41 161.01 1010.9 166.938 1016.25 172.675C1021.8 178.22 1027.63 183.861 1033.75 189.598C1040.06 195.144 1045.89 200.88 1051.25 206.808C1056.79 212.736 1061.29 219.046 1064.73 225.739C1068.36 232.241 1070.18 239.507 1070.18 247.538C1070.18 257.482 1067.98 265.991 1063.58 273.067C1059.18 280.142 1053.45 285.974 1046.37 290.563C1039.3 294.962 1031.46 298.212 1022.85 300.316C1014.44 302.61 1006.02 303.758 997.611 303.758C989.962 303.758 983.556 302.993 978.393 301.463C973.23 300.125 968.927 298.404 965.485 296.3C962.043 294.197 959.175 292.284 956.88 290.563C954.777 288.842 952.769 287.695 950.857 287.121C949.136 286.548 947.702 286.261 946.554 286.261C944.069 286.261 941.965 287.599 940.244 290.277C938.714 292.762 936.898 296.587 934.794 301.75H929.058C930.779 297.543 932.595 292.667 934.507 287.121C936.42 281.576 938.523 274.501 940.818 265.896C943.112 257.1 945.694 246.104 948.562 232.91H954.299C953.534 236.926 952.865 240.846 952.291 244.67C951.717 248.303 951.526 252.128 951.717 256.143C952.291 269.147 956.307 279.377 963.764 286.835C971.222 294.292 982.791 298.021 998.471 298.021C1010.9 298.021 1021.04 295.153 1028.88 289.416C1036.72 283.679 1040.64 274.596 1040.64 262.167C1040.64 254.136 1039.01 246.965 1035.76 240.654C1032.7 234.344 1028.59 228.512 1023.43 223.158C1018.45 217.612 1013.1 212.258 1007.36 207.095C1001.82 201.932 996.463 196.578 991.3 191.032C986.329 185.296 982.217 178.985 978.967 172.101C975.907 165.217 974.377 157.377 974.377 148.581C974.377 139.402 976.194 131.371 979.827 124.487C983.46 117.412 988.241 111.579 994.169 106.99C1000.29 102.21 1007.08 98.6719 1014.53 96.3773C1021.99 93.8914 1029.64 92.6484 1037.48 92.6484C1045.51 92.6484 1052.4 93.6045 1058.13 95.5168C1063.87 97.429 1069.41 100.489 1074.77 104.695C1077.06 106.416 1078.98 107.755 1080.51 108.711C1082.04 109.476 1083.28 109.858 1084.23 109.858C1086.91 109.858 1090.07 104.791 1093.7 94.6563H1099.44Z" fill="#FFF9F4"/>
<path d="M774.201 303.003C759.126 303.003 746.122 299.676 735.189 293.021C724.324 286.298 715.938 276.927 710.03 264.908C704.19 252.821 701.271 238.764 701.271 222.739C701.271 206.713 704.19 192.589 710.03 180.366C715.938 168.075 724.155 158.5 734.68 151.642C745.273 144.715 757.632 141.252 771.757 141.252C779.905 141.252 787.952 142.61 795.897 145.326C803.842 148.043 811.074 152.456 817.593 158.568C824.112 164.611 829.307 172.624 833.177 182.606C837.048 192.589 838.983 204.88 838.983 219.479V229.665H718.383V208.886H814.537C814.537 200.058 812.772 192.181 809.241 185.255C805.777 178.328 800.82 172.862 794.369 168.856C787.986 164.849 780.448 162.846 771.757 162.846C762.182 162.846 753.897 165.223 746.903 169.976C739.977 174.662 734.646 180.773 730.911 188.311C727.177 195.848 725.309 203.929 725.309 212.553V226.406C725.309 238.221 727.346 248.237 731.421 256.454C735.563 264.603 741.301 270.816 748.635 275.094C755.969 279.304 764.491 281.409 774.201 281.409C780.516 281.409 786.221 280.526 791.313 278.761C796.474 276.927 800.922 274.211 804.657 270.612C808.392 266.945 811.278 262.396 813.315 256.963L836.539 263.482C834.094 271.359 829.986 278.286 824.214 284.261C818.442 290.169 811.312 294.787 802.823 298.114C794.335 301.373 784.794 303.003 774.201 303.003Z" fill="#FFF9F4"/>
<path d="M640.537 299.743V143.289H664.576V299.743H640.537ZM652.76 117.213C648.075 117.213 644.034 115.617 640.639 112.426C637.312 109.234 635.648 105.397 635.648 100.916C635.648 96.4337 637.312 92.5971 640.639 89.4055C644.034 86.2139 648.075 84.6182 652.76 84.6182C657.446 84.6182 661.452 86.2139 664.779 89.4055C668.175 92.5971 669.872 96.4337 669.872 100.916C669.872 105.397 668.175 109.234 664.779 112.426C661.452 115.617 657.446 117.213 652.76 117.213Z" fill="#FFF9F4"/>
<path d="M495.109 205.624V299.741H471.071V91.1348H495.109V167.732H497.147C500.813 159.652 506.314 153.234 513.648 148.481C521.049 143.66 530.896 141.249 543.187 141.249C553.848 141.249 563.185 143.388 571.198 147.666C579.211 151.876 585.424 158.361 589.838 167.121C594.32 175.813 596.56 186.882 596.56 200.327V299.741H572.522V201.957C572.522 189.53 569.296 179.921 562.845 173.131C556.462 166.272 547.6 162.843 536.26 162.843C528.383 162.843 521.321 164.507 515.074 167.834C508.894 171.162 504.005 176.017 500.406 182.4C496.875 188.783 495.109 196.524 495.109 205.624Z" fill="#FFF9F4"/>
<path d="M374.407 303.003C359.739 303.003 347.109 299.54 336.515 292.614C325.922 285.687 317.773 276.146 312.069 263.991C306.365 251.836 303.513 237.95 303.513 222.331C303.513 206.441 306.433 192.419 312.273 180.264C318.181 168.041 326.397 158.5 336.923 151.642C347.516 144.715 359.875 141.252 373.999 141.252C385 141.252 394.914 143.289 403.742 147.363C412.57 151.438 419.802 157.142 425.438 164.476C431.074 171.809 434.571 180.366 435.929 190.144H411.891C410.057 183.014 405.983 176.699 399.668 171.198C393.42 165.63 385 162.846 374.407 162.846C365.036 162.846 356.819 165.291 349.757 170.18C342.763 175.001 337.296 181.826 333.358 190.653C329.487 199.413 327.552 209.701 327.552 221.516C327.552 233.604 329.453 244.129 333.256 253.093C337.126 262.056 342.559 269.016 349.553 273.973C356.615 278.931 364.9 281.409 374.407 281.409C380.654 281.409 386.324 280.323 391.417 278.15C396.51 275.977 400.822 272.853 404.353 268.779C407.884 264.704 410.397 259.815 411.891 254.111H435.929C434.571 263.346 431.21 271.665 425.845 279.066C420.549 286.4 413.52 292.24 404.76 296.586C396.069 300.864 385.951 303.003 374.407 303.003Z" fill="#FFF9F4"/>
<path d="M208.887 299.743V143.288H232.111V166.92H233.741C236.593 159.178 241.754 152.897 249.223 148.076C256.693 143.254 265.113 140.844 274.484 140.844C276.25 140.844 278.456 140.878 281.105 140.946C283.753 141.014 285.756 141.115 287.114 141.251V165.697C286.3 165.493 284.432 165.188 281.512 164.78C278.66 164.305 275.638 164.067 272.447 164.067C264.841 164.067 258.051 165.663 252.075 168.855C246.167 171.978 241.482 176.324 238.019 181.893C234.623 187.393 232.926 193.674 232.926 200.737V299.743H208.887Z" fill="#FFF9F4"/>
<path d="M26.8658 299.741H0.382568L76.9801 91.1348H103.056L179.653 299.741H153.17L90.8329 124.137H89.2031L26.8658 299.741ZM36.6442 218.254H143.392V240.663H36.6442V218.254Z" fill="#FFF9F4"/>
</svg>
