<svg width="276" height="31" viewBox="0 0 276 31" fill="none" xmlns="http://www.w3.org/2000/svg">
<path d="M21.9517 8H19.1335C18.9669 7.18939 18.6752 6.47727 18.2585 5.86364C17.8494 5.25 17.3494 4.73485 16.7585 4.31818C16.1752 3.89394 15.5275 3.57576 14.8153 3.36364C14.1032 3.15151 13.3608 3.04545 12.5881 3.04545C11.179 3.04545 9.90246 3.40151 8.75852 4.11364C7.62216 4.82576 6.71686 5.875 6.04261 7.26136C5.37595 8.64773 5.04261 10.3485 5.04261 12.3636C5.04261 14.3788 5.37595 16.0795 6.04261 17.4659C6.71686 18.8523 7.62216 19.9015 8.75852 20.6136C9.90246 21.3258 11.179 21.6818 12.5881 21.6818C13.3608 21.6818 14.1032 21.5758 14.8153 21.3636C15.5275 21.1515 16.1752 20.8371 16.7585 20.4205C17.3494 19.9962 17.8494 19.4773 18.2585 18.8636C18.6752 18.2424 18.9669 17.5303 19.1335 16.7273H21.9517C21.7396 17.9167 21.3532 18.9811 20.7926 19.9205C20.232 20.8598 19.535 21.6591 18.7017 22.3182C17.8684 22.9697 16.9328 23.4659 15.8949 23.8068C14.8646 24.1477 13.7623 24.3182 12.5881 24.3182C10.6032 24.3182 8.83807 23.8333 7.29261 22.8636C5.74716 21.8939 4.53125 20.5152 3.64489 18.7273C2.75852 16.9394 2.31534 14.8182 2.31534 12.3636C2.31534 9.90909 2.75852 7.78788 3.64489 6C4.53125 4.21212 5.74716 2.83333 7.29261 1.86364C8.83807 0.893939 10.6032 0.40909 12.5881 0.40909C13.7623 0.40909 14.8646 0.579545 15.8949 0.920454C16.9328 1.26136 17.8684 1.76136 18.7017 2.42045C19.535 3.07197 20.232 3.86742 20.7926 4.80682C21.3532 5.73864 21.7396 6.80303 21.9517 8ZM31.633 24.3636C30.0572 24.3636 28.6746 23.9886 27.4852 23.2386C26.3034 22.4886 25.3792 21.4394 24.7125 20.0909C24.0534 18.7424 23.7239 17.1667 23.7239 15.3636C23.7239 13.5455 24.0534 11.9583 24.7125 10.6023C25.3792 9.24621 26.3034 8.19318 27.4852 7.44318C28.6746 6.69318 30.0572 6.31818 31.633 6.31818C33.2087 6.31818 34.5875 6.69318 35.7693 7.44318C36.9587 8.19318 37.883 9.24621 38.542 10.6023C39.2087 11.9583 39.542 13.5455 39.542 15.3636C39.542 17.1667 39.2087 18.7424 38.542 20.0909C37.883 21.4394 36.9587 22.4886 35.7693 23.2386C34.5875 23.9886 33.2087 24.3636 31.633 24.3636ZM31.633 21.9545C32.8299 21.9545 33.8148 21.6477 34.5875 21.0341C35.3602 20.4205 35.9322 19.6136 36.3034 18.6136C36.6746 17.6136 36.8602 16.5303 36.8602 15.3636C36.8602 14.197 36.6746 13.1098 36.3034 12.1023C35.9322 11.0947 35.3602 10.2803 34.5875 9.65909C33.8148 9.03788 32.8299 8.72727 31.633 8.72727C30.436 8.72727 29.4511 9.03788 28.6784 9.65909C27.9057 10.2803 27.3337 11.0947 26.9625 12.1023C26.5913 13.1098 26.4057 14.197 26.4057 15.3636C26.4057 16.5303 26.5913 17.6136 26.9625 18.6136C27.3337 19.6136 27.9057 20.4205 28.6784 21.0341C29.4511 21.6477 30.436 21.9545 31.633 21.9545ZM44.7176 13.5V24H42.0358V6.54545H44.6267V9.27273H44.854C45.2631 8.38636 45.8843 7.67424 46.7176 7.13636C47.5509 6.59091 48.6267 6.31818 49.9449 6.31818C51.1267 6.31818 52.1608 6.56061 53.0472 7.04545C53.9335 7.52273 54.6229 8.25 55.1153 9.22727C55.6078 10.197 55.854 11.4242 55.854 12.9091V24H53.1722V13.0909C53.1722 11.7197 52.8161 10.6515 52.104 9.88636C51.3919 9.11364 50.4146 8.72727 49.1722 8.72727C48.3161 8.72727 47.5509 8.91288 46.8767 9.28409C46.21 9.6553 45.6835 10.197 45.2972 10.9091C44.9108 11.6212 44.7176 12.4848 44.7176 13.5ZM66.7455 6.54545V8.81818H57.7V6.54545H66.7455ZM60.3364 2.36364H63.0182V19C63.0182 19.7576 63.128 20.3258 63.3477 20.7045C63.575 21.0758 63.8629 21.3258 64.2114 21.4545C64.5674 21.5758 64.9424 21.6364 65.3364 21.6364C65.6318 21.6364 65.8742 21.6212 66.0636 21.5909C66.253 21.553 66.4045 21.5227 66.5182 21.5L67.0636 23.9091C66.8818 23.9773 66.628 24.0455 66.3023 24.1136C65.9765 24.1894 65.5636 24.2273 65.0636 24.2273C64.3061 24.2273 63.5636 24.0644 62.8364 23.7386C62.1167 23.4129 61.5182 22.9167 61.0409 22.25C60.5712 21.5833 60.3364 20.7424 60.3364 19.7273V2.36364ZM74.3159 24.4091C73.2098 24.4091 72.2061 24.2008 71.3045 23.7841C70.403 23.3598 69.6871 22.75 69.1568 21.9545C68.6265 21.1515 68.3614 20.1818 68.3614 19.0455C68.3614 18.0455 68.5583 17.2348 68.9523 16.6136C69.3462 15.9848 69.8727 15.4924 70.5318 15.1364C71.1909 14.7803 71.9182 14.5152 72.7136 14.3409C73.5167 14.1591 74.3235 14.0152 75.1341 13.9091C76.1947 13.7727 77.0545 13.6705 77.7136 13.6023C78.3803 13.5265 78.8652 13.4015 79.1682 13.2273C79.4788 13.053 79.6341 12.75 79.6341 12.3182V12.2273C79.6341 11.1061 79.3273 10.2348 78.7136 9.61364C78.1076 8.99242 77.1871 8.68182 75.9523 8.68182C74.672 8.68182 73.6682 8.96212 72.9409 9.52273C72.2136 10.0833 71.7023 10.6818 71.4068 11.3182L68.8614 10.4091C69.3159 9.34848 69.922 8.52273 70.6795 7.93182C71.4447 7.33333 72.278 6.91667 73.1795 6.68182C74.0886 6.43939 74.9826 6.31818 75.8614 6.31818C76.422 6.31818 77.0659 6.38636 77.7932 6.52273C78.528 6.65151 79.2364 6.92045 79.9182 7.32954C80.6076 7.73864 81.1795 8.35606 81.6341 9.18182C82.0886 10.0076 82.3159 11.1136 82.3159 12.5V24H79.6341V21.6364H79.4977C79.3159 22.0152 79.0129 22.4205 78.5886 22.8523C78.1644 23.2841 77.6 23.6515 76.8955 23.9545C76.1909 24.2576 75.3311 24.4091 74.3159 24.4091ZM74.725 22C75.7856 22 76.6795 21.7917 77.4068 21.375C78.1417 20.9583 78.6947 20.4205 79.0659 19.7614C79.4447 19.1023 79.6341 18.4091 79.6341 17.6818V15.2273C79.5205 15.3636 79.2705 15.4886 78.8841 15.6023C78.5053 15.7083 78.0659 15.803 77.5659 15.8864C77.0735 15.9621 76.5924 16.0303 76.1227 16.0909C75.6606 16.1439 75.2856 16.1894 74.9977 16.2273C74.3008 16.3182 73.6492 16.4659 73.0432 16.6705C72.4447 16.8674 71.9598 17.1667 71.5886 17.5682C71.225 17.9621 71.0432 18.5 71.0432 19.1818C71.0432 20.1136 71.3879 20.8182 72.0773 21.2955C72.7742 21.7652 73.6568 22 74.725 22ZM92.7017 24.3636C91.0653 24.3636 89.6563 23.9773 88.4744 23.2045C87.2926 22.4318 86.3835 21.3674 85.7472 20.0114C85.1108 18.6553 84.7926 17.1061 84.7926 15.3636C84.7926 13.5909 85.1184 12.0265 85.7699 10.6705C86.429 9.30682 87.3456 8.24242 88.5199 7.47727C89.7017 6.70455 91.0805 6.31818 92.6562 6.31818C93.8835 6.31818 94.9896 6.54545 95.9744 7C96.9593 7.45455 97.7661 8.09091 98.3949 8.90909C99.0237 9.72727 99.4138 10.6818 99.5653 11.7727H96.8835C96.679 10.9773 96.2244 10.2727 95.5199 9.65909C94.8229 9.03788 93.8835 8.72727 92.7017 8.72727C91.6563 8.72727 90.7396 9 89.9517 9.54545C89.1714 10.0833 88.5616 10.8447 88.1222 11.8295C87.6903 12.8068 87.4744 13.9545 87.4744 15.2727C87.4744 16.6212 87.6866 17.7955 88.1108 18.7955C88.5426 19.7955 89.1487 20.572 89.929 21.125C90.7169 21.678 91.6411 21.9545 92.7017 21.9545C93.3987 21.9545 94.0312 21.8333 94.5994 21.5909C95.1676 21.3485 95.6487 21 96.0426 20.5455C96.4366 20.0909 96.7169 19.5455 96.8835 18.9091H99.5653C99.4138 19.9394 99.0388 20.8674 98.4403 21.6932C97.8494 22.5114 97.0653 23.1629 96.0881 23.6477C95.1184 24.125 93.9896 24.3636 92.7017 24.3636ZM109.477 6.54545V8.81818H100.431V6.54545H109.477ZM103.068 2.36364H105.749V19C105.749 19.7576 105.859 20.3258 106.079 20.7045C106.306 21.0758 106.594 21.3258 106.943 21.4545C107.299 21.5758 107.674 21.6364 108.068 21.6364C108.363 21.6364 108.605 21.6212 108.795 21.5909C108.984 21.553 109.136 21.5227 109.249 21.5L109.795 23.9091C109.613 23.9773 109.359 24.0455 109.034 24.1136C108.708 24.1894 108.295 24.2273 107.795 24.2273C107.037 24.2273 106.295 24.0644 105.568 23.7386C104.848 23.4129 104.249 22.9167 103.772 22.25C103.302 21.5833 103.068 20.7424 103.068 19.7273V2.36364ZM130.311 16.8636V6.54545H132.993V24H130.311V21.0455H130.129C129.72 21.9318 129.084 22.6856 128.22 23.3068C127.356 23.9205 126.265 24.2273 124.947 24.2273C123.856 24.2273 122.887 23.9886 122.038 23.5114C121.19 23.0265 120.523 22.2992 120.038 21.3295C119.553 20.3523 119.311 19.1212 119.311 17.6364V6.54545H121.993V17.4545C121.993 18.7273 122.349 19.7424 123.061 20.5C123.78 21.2576 124.697 21.6364 125.811 21.6364C126.477 21.6364 127.155 21.4659 127.845 21.125C128.542 20.7841 129.125 20.2614 129.595 19.5568C130.072 18.8523 130.311 17.9545 130.311 16.8636ZM148.668 10.4545L146.259 11.1364C146.108 10.7348 145.884 10.3447 145.589 9.96591C145.301 9.57955 144.907 9.26136 144.407 9.01136C143.907 8.76136 143.267 8.63636 142.486 8.63636C141.418 8.63636 140.528 8.88258 139.816 9.375C139.111 9.85985 138.759 10.4773 138.759 11.2273C138.759 11.8939 139.002 12.4205 139.486 12.8068C139.971 13.1932 140.729 13.5152 141.759 13.7727L144.35 14.4091C145.911 14.7879 147.073 15.3674 147.839 16.1477C148.604 16.9205 148.986 17.9167 148.986 19.1364C148.986 20.1364 148.698 21.0303 148.123 21.8182C147.555 22.6061 146.759 23.2273 145.736 23.6818C144.714 24.1364 143.524 24.3636 142.168 24.3636C140.388 24.3636 138.914 23.9773 137.748 23.2045C136.581 22.4318 135.842 21.303 135.532 19.8182L138.077 19.1818C138.32 20.1212 138.778 20.8258 139.452 21.2955C140.134 21.7652 141.024 22 142.123 22C143.373 22 144.365 21.7348 145.1 21.2045C145.842 20.6667 146.214 20.0227 146.214 19.2727C146.214 18.6667 146.002 18.1591 145.577 17.75C145.153 17.3333 144.502 17.0227 143.623 16.8182L140.714 16.1364C139.115 15.7576 137.941 15.1705 137.191 14.375C136.448 13.572 136.077 12.5682 136.077 11.3636C136.077 10.3788 136.354 9.50758 136.907 8.75C137.467 7.99242 138.229 7.39773 139.191 6.96591C140.161 6.53409 141.259 6.31818 142.486 6.31818C144.214 6.31818 145.57 6.69697 146.555 7.45454C147.547 8.21212 148.252 9.21212 148.668 10.4545ZM166.414 6.54545V8.81818H157.369V6.54545H166.414ZM160.005 2.36364H162.687V19C162.687 19.7576 162.797 20.3258 163.016 20.7045C163.244 21.0758 163.532 21.3258 163.88 21.4545C164.236 21.5758 164.611 21.6364 165.005 21.6364C165.301 21.6364 165.543 21.6212 165.732 21.5909C165.922 21.553 166.073 21.5227 166.187 21.5L166.732 23.9091C166.551 23.9773 166.297 24.0455 165.971 24.1136C165.645 24.1894 165.232 24.2273 164.732 24.2273C163.975 24.2273 163.232 24.0644 162.505 23.7386C161.785 23.4129 161.187 22.9167 160.71 22.25C160.24 21.5833 160.005 20.7424 160.005 19.7273V2.36364ZM175.752 24.3636C174.176 24.3636 172.793 23.9886 171.604 23.2386C170.422 22.4886 169.498 21.4394 168.831 20.0909C168.172 18.7424 167.843 17.1667 167.843 15.3636C167.843 13.5455 168.172 11.9583 168.831 10.6023C169.498 9.24621 170.422 8.19318 171.604 7.44318C172.793 6.69318 174.176 6.31818 175.752 6.31818C177.327 6.31818 178.706 6.69318 179.888 7.44318C181.077 8.19318 182.002 9.24621 182.661 10.6023C183.327 11.9583 183.661 13.5455 183.661 15.3636C183.661 17.1667 183.327 18.7424 182.661 20.0909C182.002 21.4394 181.077 22.4886 179.888 23.2386C178.706 23.9886 177.327 24.3636 175.752 24.3636ZM175.752 21.9545C176.949 21.9545 177.934 21.6477 178.706 21.0341C179.479 20.4205 180.051 19.6136 180.422 18.6136C180.793 17.6136 180.979 16.5303 180.979 15.3636C180.979 14.197 180.793 13.1098 180.422 12.1023C180.051 11.0947 179.479 10.2803 178.706 9.65909C177.934 9.03788 176.949 8.72727 175.752 8.72727C174.555 8.72727 173.57 9.03788 172.797 9.65909C172.024 10.2803 171.452 11.0947 171.081 12.1023C170.71 13.1098 170.524 14.197 170.524 15.3636C170.524 16.5303 170.71 17.6136 171.081 18.6136C171.452 19.6136 172.024 20.4205 172.797 21.0341C173.57 21.6477 174.555 21.9545 175.752 21.9545ZM192.745 24.3636C191.291 24.3636 190.007 23.9962 188.893 23.2614C187.78 22.5189 186.908 21.4735 186.28 20.125C185.651 18.7689 185.336 17.1667 185.336 15.3182C185.336 13.4848 185.651 11.8939 186.28 10.5455C186.908 9.19697 187.783 8.1553 188.905 7.42045C190.026 6.68561 191.321 6.31818 192.791 6.31818C193.927 6.31818 194.825 6.50758 195.484 6.88636C196.151 7.25758 196.658 7.68182 197.007 8.15909C197.363 8.62879 197.639 9.01515 197.836 9.31818H198.064V0.727272H200.745V24H198.155V21.3182H197.836C197.639 21.6364 197.359 22.0379 196.995 22.5227C196.632 23 196.113 23.428 195.439 23.8068C194.764 24.178 193.867 24.3636 192.745 24.3636ZM193.109 21.9545C194.185 21.9545 195.094 21.6742 195.836 21.1136C196.579 20.5455 197.143 19.7614 197.53 18.7614C197.916 17.7538 198.109 16.5909 198.109 15.2727C198.109 13.9697 197.92 12.8295 197.541 11.8523C197.162 10.8674 196.602 10.1023 195.859 9.55682C195.117 9.00379 194.2 8.72727 193.109 8.72727C191.973 8.72727 191.026 9.01894 190.268 9.60227C189.518 10.178 188.954 10.9621 188.575 11.9545C188.204 12.9394 188.018 14.0455 188.018 15.2727C188.018 16.5152 188.208 17.6439 188.586 18.6591C188.973 19.6667 189.541 20.4697 190.291 21.0682C191.048 21.6591 191.988 21.9545 193.109 21.9545ZM209.566 24.4091C208.46 24.4091 207.456 24.2008 206.555 23.7841C205.653 23.3598 204.937 22.75 204.407 21.9545C203.877 21.1515 203.611 20.1818 203.611 19.0455C203.611 18.0455 203.808 17.2348 204.202 16.6136C204.596 15.9848 205.123 15.4924 205.782 15.1364C206.441 14.7803 207.168 14.5152 207.964 14.3409C208.767 14.1591 209.573 14.0152 210.384 13.9091C211.445 13.7727 212.305 13.6705 212.964 13.6023C213.63 13.5265 214.115 13.4015 214.418 13.2273C214.729 13.053 214.884 12.75 214.884 12.3182V12.2273C214.884 11.1061 214.577 10.2348 213.964 9.61364C213.358 8.99242 212.437 8.68182 211.202 8.68182C209.922 8.68182 208.918 8.96212 208.191 9.52273C207.464 10.0833 206.952 10.6818 206.657 11.3182L204.111 10.4091C204.566 9.34848 205.172 8.52273 205.93 7.93182C206.695 7.33333 207.528 6.91667 208.43 6.68182C209.339 6.43939 210.233 6.31818 211.111 6.31818C211.672 6.31818 212.316 6.38636 213.043 6.52273C213.778 6.65151 214.486 6.92045 215.168 7.32954C215.858 7.73864 216.43 8.35606 216.884 9.18182C217.339 10.0076 217.566 11.1136 217.566 12.5V24H214.884V21.6364H214.748C214.566 22.0152 214.263 22.4205 213.839 22.8523C213.414 23.2841 212.85 23.6515 212.145 23.9545C211.441 24.2576 210.581 24.4091 209.566 24.4091ZM209.975 22C211.036 22 211.93 21.7917 212.657 21.375C213.392 20.9583 213.945 20.4205 214.316 19.7614C214.695 19.1023 214.884 18.4091 214.884 17.6818V15.2273C214.77 15.3636 214.52 15.4886 214.134 15.6023C213.755 15.7083 213.316 15.803 212.816 15.8864C212.323 15.9621 211.842 16.0303 211.373 16.0909C210.911 16.1439 210.536 16.1894 210.248 16.2273C209.551 16.3182 208.899 16.4659 208.293 16.6705C207.695 16.8674 207.21 17.1667 206.839 17.5682C206.475 17.9621 206.293 18.5 206.293 19.1818C206.293 20.1136 206.638 20.8182 207.327 21.2955C208.024 21.7652 208.907 22 209.975 22ZM221.963 30.5455C221.509 30.5455 221.103 30.5076 220.747 30.4318C220.391 30.3636 220.145 30.2955 220.009 30.2273L220.69 27.8636C221.342 28.0303 221.918 28.0909 222.418 28.0455C222.918 28 223.361 27.7765 223.747 27.375C224.141 26.9811 224.501 26.3409 224.827 25.4545L225.327 24.0909L218.872 6.54545H221.781L226.599 20.4545H226.781L231.599 6.54545H234.509L227.099 26.5455C226.766 27.447 226.353 28.1932 225.861 28.7841C225.368 29.3826 224.796 29.8258 224.145 30.1136C223.501 30.4015 222.774 30.5455 221.963 30.5455Z" fill="black"/>
<path d="M252.319 1.31882H274.681V23.6811" stroke="black" stroke-width="2"/>
<path d="M274.281 1.71875L252.319 23.6812" stroke="black" stroke-width="2"/>
</svg>
